<mxfile host="app.diagrams.net" modified="2023-07-16T20:08:14.374Z" agent="Mozilla/5.0 (Windows NT 10.0; Win64; x64) AppleWebKit/537.36 (KHTML, like Gecko) Chrome/114.0.0.0 Safari/537.36" etag="R5UKIKyxFjWydL3fkgL0" version="21.6.2" type="github">
  <diagram name="Page-1" id="6nC1XPO7iHAmVQ8SdGbW">
    <mxGraphModel dx="1900" dy="573" grid="1" gridSize="10" guides="1" tooltips="1" connect="1" arrows="1" fold="1" page="1" pageScale="1" pageWidth="850" pageHeight="1100" math="0" shadow="0">
      <root>
        <mxCell id="0" />
        <mxCell id="1" parent="0" />
        <mxCell id="1F0BMthETR4RSBZG4No4-29" style="edgeStyle=orthogonalEdgeStyle;rounded=0;orthogonalLoop=1;jettySize=auto;html=1;entryX=0;entryY=0.5;entryDx=0;entryDy=0;" edge="1" parent="1" source="1F0BMthETR4RSBZG4No4-1" target="1F0BMthETR4RSBZG4No4-2">
          <mxGeometry relative="1" as="geometry" />
        </mxCell>
        <mxCell id="1F0BMthETR4RSBZG4No4-1" value="Homepage" style="rounded=1;whiteSpace=wrap;html=1;fontSize=16;fontStyle=1;fillColor=#00FF00;" vertex="1" parent="1">
          <mxGeometry x="90" y="155" width="110" height="50" as="geometry" />
        </mxCell>
        <mxCell id="1F0BMthETR4RSBZG4No4-30" style="edgeStyle=orthogonalEdgeStyle;rounded=0;orthogonalLoop=1;jettySize=auto;html=1;entryX=0;entryY=0.5;entryDx=0;entryDy=0;" edge="1" parent="1" source="1F0BMthETR4RSBZG4No4-2" target="1F0BMthETR4RSBZG4No4-3">
          <mxGeometry relative="1" as="geometry" />
        </mxCell>
        <mxCell id="1F0BMthETR4RSBZG4No4-2" value="Search Product" style="rounded=1;whiteSpace=wrap;html=1;fontSize=16;fontStyle=1;fillColor=#00FF00;" vertex="1" parent="1">
          <mxGeometry x="240" y="155" width="120" height="50" as="geometry" />
        </mxCell>
        <mxCell id="1F0BMthETR4RSBZG4No4-31" style="edgeStyle=orthogonalEdgeStyle;rounded=0;orthogonalLoop=1;jettySize=auto;html=1;entryX=0;entryY=0.5;entryDx=0;entryDy=0;" edge="1" parent="1" source="1F0BMthETR4RSBZG4No4-3" target="1F0BMthETR4RSBZG4No4-6">
          <mxGeometry relative="1" as="geometry" />
        </mxCell>
        <mxCell id="1F0BMthETR4RSBZG4No4-35" value="&lt;font style=&quot;font-size: 16px;&quot;&gt;&lt;b&gt;Found&lt;/b&gt;&lt;/font&gt;" style="edgeLabel;html=1;align=center;verticalAlign=middle;resizable=0;points=[];" vertex="1" connectable="0" parent="1F0BMthETR4RSBZG4No4-31">
          <mxGeometry x="-0.088" relative="1" as="geometry">
            <mxPoint as="offset" />
          </mxGeometry>
        </mxCell>
        <mxCell id="1F0BMthETR4RSBZG4No4-46" style="edgeStyle=orthogonalEdgeStyle;rounded=0;orthogonalLoop=1;jettySize=auto;html=1;entryX=0.5;entryY=1;entryDx=0;entryDy=0;" edge="1" parent="1" source="1F0BMthETR4RSBZG4No4-3" target="1F0BMthETR4RSBZG4No4-2">
          <mxGeometry relative="1" as="geometry">
            <Array as="points">
              <mxPoint x="510" y="280" />
              <mxPoint x="300" y="280" />
            </Array>
          </mxGeometry>
        </mxCell>
        <mxCell id="1F0BMthETR4RSBZG4No4-47" value="&lt;font style=&quot;font-size: 14px;&quot;&gt;&lt;b&gt;Not Found&lt;/b&gt;&lt;/font&gt;" style="edgeLabel;html=1;align=center;verticalAlign=middle;resizable=0;points=[];" vertex="1" connectable="0" parent="1F0BMthETR4RSBZG4No4-46">
          <mxGeometry x="0.0164" y="1" relative="1" as="geometry">
            <mxPoint as="offset" />
          </mxGeometry>
        </mxCell>
        <mxCell id="1F0BMthETR4RSBZG4No4-3" value="found?" style="rhombus;whiteSpace=wrap;html=1;fontSize=16;fontStyle=1;fillColor=#00FF00;" vertex="1" parent="1">
          <mxGeometry x="440" y="155" width="130" height="50" as="geometry" />
        </mxCell>
        <mxCell id="1F0BMthETR4RSBZG4No4-38" style="edgeStyle=orthogonalEdgeStyle;rounded=0;orthogonalLoop=1;jettySize=auto;html=1;entryX=0.5;entryY=0;entryDx=0;entryDy=0;" edge="1" parent="1" source="1F0BMthETR4RSBZG4No4-6" target="1F0BMthETR4RSBZG4No4-7">
          <mxGeometry relative="1" as="geometry">
            <Array as="points">
              <mxPoint x="775" y="240" />
              <mxPoint x="905" y="240" />
            </Array>
          </mxGeometry>
        </mxCell>
        <mxCell id="1F0BMthETR4RSBZG4No4-39" style="edgeStyle=orthogonalEdgeStyle;rounded=0;orthogonalLoop=1;jettySize=auto;html=1;entryX=0.5;entryY=0;entryDx=0;entryDy=0;" edge="1" parent="1" source="1F0BMthETR4RSBZG4No4-6" target="1F0BMthETR4RSBZG4No4-8">
          <mxGeometry relative="1" as="geometry">
            <Array as="points">
              <mxPoint x="775" y="240" />
              <mxPoint x="658" y="240" />
            </Array>
          </mxGeometry>
        </mxCell>
        <mxCell id="1F0BMthETR4RSBZG4No4-6" value="Set Action" style="rounded=1;whiteSpace=wrap;html=1;fontSize=16;fontStyle=1;fillColor=#00FF00;" vertex="1" parent="1">
          <mxGeometry x="720" y="155" width="110" height="50" as="geometry" />
        </mxCell>
        <mxCell id="1F0BMthETR4RSBZG4No4-48" style="edgeStyle=orthogonalEdgeStyle;rounded=0;orthogonalLoop=1;jettySize=auto;html=1;entryX=0.817;entryY=0;entryDx=0;entryDy=0;entryPerimeter=0;" edge="1" parent="1" source="1F0BMthETR4RSBZG4No4-7" target="1F0BMthETR4RSBZG4No4-10">
          <mxGeometry relative="1" as="geometry" />
        </mxCell>
        <mxCell id="1F0BMthETR4RSBZG4No4-7" value="Buy" style="rounded=1;whiteSpace=wrap;html=1;fontSize=16;fontStyle=1;fillColor=#00FF00;" vertex="1" parent="1">
          <mxGeometry x="850" y="320" width="110" height="40" as="geometry" />
        </mxCell>
        <mxCell id="1F0BMthETR4RSBZG4No4-8" value="Cart" style="rounded=1;whiteSpace=wrap;html=1;fontSize=16;fontStyle=1;fillColor=#00FF00;" vertex="1" parent="1">
          <mxGeometry x="602.5" y="320" width="110" height="40" as="geometry" />
        </mxCell>
        <mxCell id="1F0BMthETR4RSBZG4No4-40" style="edgeStyle=orthogonalEdgeStyle;rounded=0;orthogonalLoop=1;jettySize=auto;html=1;entryX=0.5;entryY=1;entryDx=0;entryDy=0;" edge="1" parent="1" source="1F0BMthETR4RSBZG4No4-9" target="1F0BMthETR4RSBZG4No4-8">
          <mxGeometry relative="1" as="geometry" />
        </mxCell>
        <mxCell id="1F0BMthETR4RSBZG4No4-41" value="&lt;font style=&quot;font-size: 14px;&quot;&gt;&lt;b&gt;update&lt;/b&gt;&lt;/font&gt;" style="edgeLabel;html=1;align=center;verticalAlign=middle;resizable=0;points=[];" vertex="1" connectable="0" parent="1F0BMthETR4RSBZG4No4-40">
          <mxGeometry x="0.04" y="-2" relative="1" as="geometry">
            <mxPoint x="1" as="offset" />
          </mxGeometry>
        </mxCell>
        <mxCell id="1F0BMthETR4RSBZG4No4-44" style="edgeStyle=orthogonalEdgeStyle;rounded=0;orthogonalLoop=1;jettySize=auto;html=1;entryX=0.75;entryY=1;entryDx=0;entryDy=0;" edge="1" parent="1" source="1F0BMthETR4RSBZG4No4-9" target="1F0BMthETR4RSBZG4No4-1">
          <mxGeometry relative="1" as="geometry" />
        </mxCell>
        <mxCell id="1F0BMthETR4RSBZG4No4-45" value="&lt;font style=&quot;font-size: 14px;&quot;&gt;&lt;b&gt;Delete&lt;/b&gt;&lt;/font&gt;" style="edgeLabel;html=1;align=center;verticalAlign=middle;resizable=0;points=[];" vertex="1" connectable="0" parent="1F0BMthETR4RSBZG4No4-44">
          <mxGeometry x="-0.3734" y="-6" relative="1" as="geometry">
            <mxPoint x="1" as="offset" />
          </mxGeometry>
        </mxCell>
        <mxCell id="1F0BMthETR4RSBZG4No4-49" style="edgeStyle=orthogonalEdgeStyle;rounded=0;orthogonalLoop=1;jettySize=auto;html=1;entryX=0.213;entryY=0;entryDx=0;entryDy=0;entryPerimeter=0;" edge="1" parent="1" source="1F0BMthETR4RSBZG4No4-9" target="1F0BMthETR4RSBZG4No4-10">
          <mxGeometry relative="1" as="geometry" />
        </mxCell>
        <mxCell id="1F0BMthETR4RSBZG4No4-50" value="&lt;font style=&quot;font-size: 14px;&quot;&gt;&lt;b&gt;Buy&lt;/b&gt;&lt;/font&gt;" style="edgeLabel;html=1;align=center;verticalAlign=middle;resizable=0;points=[];" vertex="1" connectable="0" parent="1F0BMthETR4RSBZG4No4-49">
          <mxGeometry x="-0.0125" y="3" relative="1" as="geometry">
            <mxPoint as="offset" />
          </mxGeometry>
        </mxCell>
        <mxCell id="1F0BMthETR4RSBZG4No4-9" value="Cart update?" style="rhombus;whiteSpace=wrap;html=1;fontSize=16;fontStyle=1;fillColor=#00FF00;" vertex="1" parent="1">
          <mxGeometry x="572.5" y="420" width="170" height="50" as="geometry" />
        </mxCell>
        <mxCell id="1F0BMthETR4RSBZG4No4-52" style="edgeStyle=orthogonalEdgeStyle;rounded=0;orthogonalLoop=1;jettySize=auto;html=1;entryX=0.5;entryY=0;entryDx=0;entryDy=0;" edge="1" parent="1" source="1F0BMthETR4RSBZG4No4-10" target="1F0BMthETR4RSBZG4No4-12">
          <mxGeometry relative="1" as="geometry">
            <Array as="points">
              <mxPoint x="780" y="554" />
              <mxPoint x="780" y="554" />
            </Array>
          </mxGeometry>
        </mxCell>
        <mxCell id="1F0BMthETR4RSBZG4No4-10" value="" style="line;strokeWidth=4;fillColor=#00FF00;align=left;verticalAlign=middle;spacingTop=-1;spacingLeft=3;spacingRight=3;rotatable=0;labelPosition=right;points=[];portConstraint=eastwest;strokeColor=inherit;fontSize=16;fontStyle=1" vertex="1" parent="1">
          <mxGeometry x="570" y="550" width="410" height="8" as="geometry" />
        </mxCell>
        <mxCell id="1F0BMthETR4RSBZG4No4-12" value="Give Require Information" style="rounded=1;whiteSpace=wrap;html=1;fontSize=16;fontStyle=1;fillColor=#00FF00;" vertex="1" parent="1">
          <mxGeometry x="660" y="600" width="240" height="40" as="geometry" />
        </mxCell>
        <mxCell id="1F0BMthETR4RSBZG4No4-13" value="Payment type?" style="rhombus;whiteSpace=wrap;html=1;fontSize=16;fontStyle=1;fillColor=#00FF00;" vertex="1" parent="1">
          <mxGeometry x="575" y="710" width="190" height="50" as="geometry" />
        </mxCell>
        <mxCell id="1F0BMthETR4RSBZG4No4-14" value="E-payment" style="rounded=1;whiteSpace=wrap;html=1;fontSize=16;fontStyle=1;fillColor=#00FF00;" vertex="1" parent="1">
          <mxGeometry x="310" y="710" width="110" height="50" as="geometry" />
        </mxCell>
        <mxCell id="1F0BMthETR4RSBZG4No4-15" value="Enter req, Information" style="rounded=1;whiteSpace=wrap;html=1;fontSize=16;fontStyle=1;fillColor=#00FF00;" vertex="1" parent="1">
          <mxGeometry x="90" y="710" width="120" height="50" as="geometry" />
        </mxCell>
        <mxCell id="1F0BMthETR4RSBZG4No4-16" value="Cash on Delivery" style="rounded=1;whiteSpace=wrap;html=1;fontSize=16;fontStyle=1;fillColor=#00FF00;" vertex="1" parent="1">
          <mxGeometry x="945" y="710" width="130" height="50" as="geometry" />
        </mxCell>
        <mxCell id="1F0BMthETR4RSBZG4No4-17" value="Sent order confirmation mail" style="rounded=1;whiteSpace=wrap;html=1;fontSize=16;fontStyle=1;fillColor=#00FF00;" vertex="1" parent="1">
          <mxGeometry x="820" y="840" width="240" height="40" as="geometry" />
        </mxCell>
        <mxCell id="1F0BMthETR4RSBZG4No4-18" value="Match TrxID?" style="rhombus;whiteSpace=wrap;html=1;fontSize=16;fontStyle=1;fillColor=#00FF00;" vertex="1" parent="1">
          <mxGeometry x="280" y="835" width="190" height="50" as="geometry" />
        </mxCell>
        <mxCell id="1F0BMthETR4RSBZG4No4-19" value="Sent order cancellation mail" style="rounded=1;whiteSpace=wrap;html=1;fontSize=16;fontStyle=1;fillColor=#00FF00;" vertex="1" parent="1">
          <mxGeometry x="-70" y="840" width="240" height="40" as="geometry" />
        </mxCell>
        <mxCell id="1F0BMthETR4RSBZG4No4-20" value="Product on Delivery" style="rounded=1;whiteSpace=wrap;html=1;fontSize=16;fontStyle=1;fillColor=#00FF00;" vertex="1" parent="1">
          <mxGeometry x="930" y="1000" width="160" height="40" as="geometry" />
        </mxCell>
        <mxCell id="1F0BMthETR4RSBZG4No4-21" value="Customer Validation" style="rounded=1;whiteSpace=wrap;html=1;fontSize=16;fontStyle=1;fillColor=#00FF00;" vertex="1" parent="1">
          <mxGeometry x="552.5" y="920" width="160" height="40" as="geometry" />
        </mxCell>
        <mxCell id="1F0BMthETR4RSBZG4No4-22" value="Check invoice &amp;amp; match OTP" style="rounded=1;whiteSpace=wrap;html=1;fontSize=16;fontStyle=1;fillColor=#00FF00;" vertex="1" parent="1">
          <mxGeometry x="522.5" y="1000" width="220" height="40" as="geometry" />
        </mxCell>
        <mxCell id="1F0BMthETR4RSBZG4No4-23" value="Check payment ?" style="rhombus;whiteSpace=wrap;html=1;fontSize=16;fontStyle=1;fillColor=#00FF00;" vertex="1" parent="1">
          <mxGeometry x="540" y="1105" width="185" height="70" as="geometry" />
        </mxCell>
        <mxCell id="1F0BMthETR4RSBZG4No4-24" value="Take Payment" style="rounded=1;whiteSpace=wrap;html=1;fontSize=16;fontStyle=1;fillColor=#00FF00;" vertex="1" parent="1">
          <mxGeometry x="970" y="1120" width="160" height="40" as="geometry" />
        </mxCell>
        <mxCell id="1F0BMthETR4RSBZG4No4-25" value="Product Handover" style="rounded=1;whiteSpace=wrap;html=1;fontSize=16;fontStyle=1;fillColor=#00FF00;" vertex="1" parent="1">
          <mxGeometry x="552.5" y="1240" width="160" height="40" as="geometry" />
        </mxCell>
        <mxCell id="1F0BMthETR4RSBZG4No4-26" value="" style="ellipse;html=1;shape=endState;fillColor=#000000;strokeColor=#ff0000;" vertex="1" parent="1">
          <mxGeometry x="617.5" y="1330" width="30" height="30" as="geometry" />
        </mxCell>
        <mxCell id="1F0BMthETR4RSBZG4No4-28" style="edgeStyle=orthogonalEdgeStyle;rounded=0;orthogonalLoop=1;jettySize=auto;html=1;entryX=0.5;entryY=0;entryDx=0;entryDy=0;" edge="1" parent="1" target="1F0BMthETR4RSBZG4No4-1">
          <mxGeometry relative="1" as="geometry">
            <mxPoint x="145" y="110" as="sourcePoint" />
          </mxGeometry>
        </mxCell>
        <mxCell id="1F0BMthETR4RSBZG4No4-27" value="" style="ellipse;shape=doubleEllipse;whiteSpace=wrap;html=1;aspect=fixed;fillColor=#1A1A1A;" vertex="1" parent="1">
          <mxGeometry x="132.5" y="80" width="25" height="25" as="geometry" />
        </mxCell>
      </root>
    </mxGraphModel>
  </diagram>
</mxfile>
